<svg id="eyUPZDsFp7T1" xmlns="http://www.w3.org/2000/svg" xmlns:xlink="http://www.w3.org/1999/xlink" viewBox="0 0 64 64" shape-rendering="geometricPrecision" text-rendering="geometricPrecision"><defs><filter id="eyUPZDsFp7T4-filter" x="-150%" width="400%" y="-150%" height="400%"><feGaussianBlur id="eyUPZDsFp7T4-filter-blur-0" stdDeviation="0,0" result="result"/><feComponentTransfer id="eyUPZDsFp7T4-filter-invert-0" result="result"><feFuncR id="eyUPZDsFp7T4-filter-invert-0-R" type="table" tableValues="0 1"/><feFuncG id="eyUPZDsFp7T4-filter-invert-0-G" type="table" tableValues="0 1"/><feFuncB id="eyUPZDsFp7T4-filter-invert-0-B" type="table" tableValues="0 1"/></feComponentTransfer></filter></defs><g transform="matrix(2.5 0 0 1.9 5.753738-32.012011)" opacity="0.74"><g style="mix-blend-mode:darken;isolation:isolate" transform="translate(.000001 0)" opacity="0.35" paint-order="fill markers stroke"><g style="mix-blend-mode:darken" transform="matrix(0 1-.996464 0 16.96464 4)" opacity="0.47" filter="url(#eyUPZDsFp7T4-filter)"><path d="M47,41c-5.594,0-10.145-4.201-10.145-9.363c0-2.472-2.177-4.482-4.855-4.482s-4.855,2.011-4.855,4.482C27.145,36.799,22.594,41,17,41s-10.145-4.201-10.145-9.363c0-1.271-.59-2.489-1.616-3.339C4.35,27.559,3.197,27.154,2,27.154L2,23c2.309,0,4.526.784,6.245,2.204c1.975,1.639,3.111,3.981,3.111,6.433c0,2.872,2.53,5.208,5.644,5.208s5.644-2.336,5.644-5.208C22.644,26.874,26.842,23,32,23s9.356,3.874,9.356,8.637c0,2.872,2.53,5.208,5.644,5.208s5.644-2.336,5.644-5.208c0-2.451,1.137-4.794,3.112-6.433C57.474,23.784,59.691,23,62,23v4.154c-1.197,0-2.35.404-3.238,1.144-1.027.85-1.617,2.067-1.617,3.339C57.145,36.799,52.594,41,47,41" transform="matrix(1.133334 0 0 1-6.266688-23)" fill="#707070" stroke="#737373" stroke-width="0.192"/></g></g></g></svg>
